<?xml version="1.0" encoding="UTF-8"?>
<svg width="40" height="40" viewBox="0 0 40 40" fill="none" xmlns="http://www.w3.org/2000/svg">
  <rect width="40" height="40" rx="8" fill="#4299E1"/>
  <path d="M20 8C13.373 8 8 13.373 8 20C8 26.627 13.373 32 20 32C26.627 32 32 26.627 32 20C32 13.373 26.627 8 20 8ZM20 30C14.477 30 10 25.523 10 20C10 14.477 14.477 10 20 10C25.523 10 30 14.477 30 20C30 25.523 25.523 30 20 30Z" fill="white"/>
  <path d="M20 12C16.686 12 14 14.686 14 18V22C14 25.314 16.686 28 20 28C23.314 28 26 25.314 26 22V18C26 14.686 23.314 12 20 12ZM24 22C24 24.209 22.209 26 20 26C17.791 26 16 24.209 16 22V18C16 15.791 17.791 14 20 14C22.209 14 24 15.791 24 18V22Z" fill="white"/>
</svg> 